<mxfile host="Electron" modified="2023-08-29T14:18:17.436Z" agent="Mozilla/5.0 (Windows NT 10.0; Win64; x64) AppleWebKit/537.36 (KHTML, like Gecko) draw.io/21.6.5 Chrome/114.0.5735.243 Electron/25.3.1 Safari/537.36" etag="_vTdGVYQn1YQ6zrGw3yn" version="21.6.5" type="device">
  <diagram name="Page-1" id="K4IBU2DBYjjf7SYWt5RF">
    <mxGraphModel dx="2908" dy="1180" grid="1" gridSize="10" guides="1" tooltips="1" connect="1" arrows="1" fold="1" page="1" pageScale="1" pageWidth="850" pageHeight="1100" math="0" shadow="0">
      <root>
        <mxCell id="0" />
        <mxCell id="1" parent="0" />
        <mxCell id="X3GLlu9UfrYczQOpBUBL-4" value="" style="ellipse;whiteSpace=wrap;html=1;fillColor=none;dashed=1;dashPattern=12 12;" parent="1" vertex="1">
          <mxGeometry x="230" y="30" width="560" height="460" as="geometry" />
        </mxCell>
        <mxCell id="X3GLlu9UfrYczQOpBUBL-1" value="Sell more food" style="ellipse;shape=cloud;whiteSpace=wrap;html=1;" parent="1" vertex="1">
          <mxGeometry x="475" y="50" width="120" height="80" as="geometry" />
        </mxCell>
        <mxCell id="X3GLlu9UfrYczQOpBUBL-5" value="Restaurant&lt;br&gt;Manager" style="ellipse;whiteSpace=wrap;html=1;aspect=fixed;" parent="1" vertex="1">
          <mxGeometry x="240" y="115" width="80" height="80" as="geometry" />
        </mxCell>
        <mxCell id="X3GLlu9UfrYczQOpBUBL-7" style="rounded=0;orthogonalLoop=1;jettySize=auto;html=1;entryX=0.55;entryY=0.95;entryDx=0;entryDy=0;entryPerimeter=0;exitX=0.5;exitY=0;exitDx=0;exitDy=0;" parent="1" source="X3GLlu9UfrYczQOpBUBL-6" target="X3GLlu9UfrYczQOpBUBL-1" edge="1">
          <mxGeometry relative="1" as="geometry">
            <mxPoint x="441" y="140" as="sourcePoint" />
          </mxGeometry>
        </mxCell>
        <mxCell id="X3GLlu9UfrYczQOpBUBL-6" value="Increase Patron Pool" style="rounded=1;whiteSpace=wrap;html=1;" parent="1" vertex="1">
          <mxGeometry x="500" y="150" width="80" height="50" as="geometry" />
        </mxCell>
        <mxCell id="X3GLlu9UfrYczQOpBUBL-10" style="rounded=0;orthogonalLoop=1;jettySize=auto;html=1;entryX=0.5;entryY=1;entryDx=0;entryDy=0;" parent="1" source="X3GLlu9UfrYczQOpBUBL-9" target="X3GLlu9UfrYczQOpBUBL-13" edge="1">
          <mxGeometry relative="1" as="geometry" />
        </mxCell>
        <mxCell id="X3GLlu9UfrYczQOpBUBL-9" value="Develop a &lt;br&gt;Loyalty Program" style="shape=hexagon;perimeter=hexagonPerimeter2;whiteSpace=wrap;html=1;fixedSize=1;" parent="1" vertex="1">
          <mxGeometry x="340" y="300" width="120" height="50" as="geometry" />
        </mxCell>
        <mxCell id="X3GLlu9UfrYczQOpBUBL-16" style="rounded=0;orthogonalLoop=1;jettySize=auto;html=1;entryX=0.5;entryY=1;entryDx=0;entryDy=0;" parent="1" source="X3GLlu9UfrYczQOpBUBL-12" target="X3GLlu9UfrYczQOpBUBL-15" edge="1">
          <mxGeometry relative="1" as="geometry" />
        </mxCell>
        <mxCell id="X3GLlu9UfrYczQOpBUBL-12" value="Develop a &lt;br&gt;MealBox approach" style="shape=hexagon;perimeter=hexagonPerimeter2;whiteSpace=wrap;html=1;fixedSize=1;" parent="1" vertex="1">
          <mxGeometry x="430" y="380" width="120" height="50" as="geometry" />
        </mxCell>
        <mxCell id="X3GLlu9UfrYczQOpBUBL-14" style="rounded=0;orthogonalLoop=1;jettySize=auto;html=1;entryX=0.25;entryY=1;entryDx=0;entryDy=0;exitX=0.5;exitY=0;exitDx=0;exitDy=0;" parent="1" source="X3GLlu9UfrYczQOpBUBL-13" target="X3GLlu9UfrYczQOpBUBL-6" edge="1">
          <mxGeometry relative="1" as="geometry" />
        </mxCell>
        <mxCell id="X3GLlu9UfrYczQOpBUBL-13" value="Attract more Hamiltonians" style="rounded=1;whiteSpace=wrap;html=1;" parent="1" vertex="1">
          <mxGeometry x="360" y="210" width="80" height="50" as="geometry" />
        </mxCell>
        <mxCell id="X3GLlu9UfrYczQOpBUBL-17" value="" style="rounded=0;orthogonalLoop=1;jettySize=auto;html=1;entryX=0.5;entryY=1;entryDx=0;entryDy=0;" parent="1" source="X3GLlu9UfrYczQOpBUBL-15" target="X3GLlu9UfrYczQOpBUBL-6" edge="1">
          <mxGeometry relative="1" as="geometry" />
        </mxCell>
        <mxCell id="X3GLlu9UfrYczQOpBUBL-15" value="Attract more students" style="rounded=1;whiteSpace=wrap;html=1;" parent="1" vertex="1">
          <mxGeometry x="500" y="230" width="80" height="50" as="geometry" />
        </mxCell>
        <mxCell id="X3GLlu9UfrYczQOpBUBL-18" value="" style="ellipse;whiteSpace=wrap;html=1;fillColor=none;dashed=1;dashPattern=12 12;" parent="1" vertex="1">
          <mxGeometry x="20" y="195" width="200" height="210" as="geometry" />
        </mxCell>
        <mxCell id="X3GLlu9UfrYczQOpBUBL-19" value="Line&lt;br&gt;Cook" style="ellipse;whiteSpace=wrap;html=1;aspect=fixed;" parent="1" vertex="1">
          <mxGeometry x="-20" y="195" width="80" height="80" as="geometry" />
        </mxCell>
        <mxCell id="X3GLlu9UfrYczQOpBUBL-20" value="Cook &lt;br&gt;good food" style="ellipse;shape=cloud;whiteSpace=wrap;html=1;" parent="1" vertex="1">
          <mxGeometry x="45" y="310" width="120" height="80" as="geometry" />
        </mxCell>
        <mxCell id="X3GLlu9UfrYczQOpBUBL-21" value="Make more money" style="rounded=1;whiteSpace=wrap;html=1;" parent="1" vertex="1">
          <mxGeometry x="390" y="130" width="80" height="50" as="geometry" />
        </mxCell>
        <mxCell id="X3GLlu9UfrYczQOpBUBL-22" value="" style="endArrow=classic;html=1;rounded=0;exitX=0.31;exitY=0.8;exitDx=0;exitDy=0;exitPerimeter=0;entryX=1;entryY=0;entryDx=0;entryDy=0;" parent="1" source="X3GLlu9UfrYczQOpBUBL-1" target="X3GLlu9UfrYczQOpBUBL-21" edge="1">
          <mxGeometry width="50" height="50" relative="1" as="geometry">
            <mxPoint x="650" y="290" as="sourcePoint" />
            <mxPoint x="700" y="240" as="targetPoint" />
          </mxGeometry>
        </mxCell>
        <mxCell id="X3GLlu9UfrYczQOpBUBL-23" value="" style="edgeStyle=none;orthogonalLoop=1;jettySize=auto;html=1;rounded=0;entryX=0;entryY=1;entryDx=0;entryDy=0;exitX=0.983;exitY=0.613;exitDx=0;exitDy=0;exitPerimeter=0;" parent="1" source="X3GLlu9UfrYczQOpBUBL-20" target="X3GLlu9UfrYczQOpBUBL-13" edge="1">
          <mxGeometry width="80" relative="1" as="geometry">
            <mxPoint x="620" y="320" as="sourcePoint" />
            <mxPoint x="700" y="320" as="targetPoint" />
            <Array as="points" />
          </mxGeometry>
        </mxCell>
        <mxCell id="X3GLlu9UfrYczQOpBUBL-24" value="" style="endArrow=classic;html=1;rounded=0;entryX=0.8;entryY=0.8;entryDx=0;entryDy=0;entryPerimeter=0;strokeColor=#FF0000;edgeStyle=orthogonalEdgeStyle;curved=1;" parent="1" source="X3GLlu9UfrYczQOpBUBL-12" target="X3GLlu9UfrYczQOpBUBL-20" edge="1">
          <mxGeometry width="50" height="50" relative="1" as="geometry">
            <mxPoint x="600" y="350" as="sourcePoint" />
            <mxPoint x="650" y="300" as="targetPoint" />
            <Array as="points">
              <mxPoint x="400" y="480" />
              <mxPoint x="141" y="480" />
            </Array>
          </mxGeometry>
        </mxCell>
        <mxCell id="X3GLlu9UfrYczQOpBUBL-27" value="&lt;font style=&quot;font-size: 24px;&quot;&gt;-&lt;/font&gt;" style="text;html=1;strokeColor=none;fillColor=none;align=center;verticalAlign=middle;whiteSpace=wrap;rounded=0;fontStyle=1;fontColor=#ff0000;" parent="1" vertex="1">
          <mxGeometry x="148" y="405" width="32" height="30" as="geometry" />
        </mxCell>
        <mxCell id="X3GLlu9UfrYczQOpBUBL-30" value="" style="edgeStyle=none;rounded=0;orthogonalLoop=1;jettySize=auto;html=1;" parent="1" source="X3GLlu9UfrYczQOpBUBL-29" target="X3GLlu9UfrYczQOpBUBL-20" edge="1">
          <mxGeometry relative="1" as="geometry">
            <mxPoint x="120" y="295" as="targetPoint" />
          </mxGeometry>
        </mxCell>
        <mxCell id="X3GLlu9UfrYczQOpBUBL-29" value="Order sent to kitchen" style="rounded=0;whiteSpace=wrap;html=1;" parent="1" vertex="1">
          <mxGeometry x="83" y="220" width="90" height="50" as="geometry" />
        </mxCell>
        <mxCell id="X3GLlu9UfrYczQOpBUBL-35" value="" style="ellipse;whiteSpace=wrap;html=1;fillColor=none;dashed=1;dashPattern=12 12;" parent="1" vertex="1">
          <mxGeometry x="540" y="550" width="202" height="200" as="geometry" />
        </mxCell>
        <mxCell id="X3GLlu9UfrYczQOpBUBL-36" value="Admin&lt;br&gt;Assistant" style="ellipse;whiteSpace=wrap;html=1;aspect=fixed;" parent="1" vertex="1">
          <mxGeometry x="500" y="620" width="80" height="80" as="geometry" />
        </mxCell>
        <mxCell id="X3GLlu9UfrYczQOpBUBL-37" value="Make job easier" style="ellipse;shape=cloud;whiteSpace=wrap;html=1;" parent="1" vertex="1">
          <mxGeometry x="572" y="560" width="120" height="80" as="geometry" />
        </mxCell>
        <mxCell id="OVPMkM7dysgzumKCxNbh-10" style="rounded=0;orthogonalLoop=1;jettySize=auto;html=1;strokeColor=#FF0000;" parent="1" source="X3GLlu9UfrYczQOpBUBL-40" target="X3GLlu9UfrYczQOpBUBL-37" edge="1">
          <mxGeometry relative="1" as="geometry" />
        </mxCell>
        <mxCell id="X3GLlu9UfrYczQOpBUBL-40" value="Expense Report" style="rounded=0;whiteSpace=wrap;html=1;" parent="1" vertex="1">
          <mxGeometry x="596" y="690" width="90" height="30" as="geometry" />
        </mxCell>
        <mxCell id="OVPMkM7dysgzumKCxNbh-12" style="rounded=0;orthogonalLoop=1;jettySize=auto;html=1;" parent="1" source="X3GLlu9UfrYczQOpBUBL-41" target="OVPMkM7dysgzumKCxNbh-11" edge="1">
          <mxGeometry relative="1" as="geometry" />
        </mxCell>
        <mxCell id="X3GLlu9UfrYczQOpBUBL-41" value="Automating&lt;br&gt;billing" style="shape=hexagon;perimeter=hexagonPerimeter2;whiteSpace=wrap;html=1;fixedSize=1;" parent="1" vertex="1">
          <mxGeometry x="680" y="480" width="110" height="40" as="geometry" />
        </mxCell>
        <mxCell id="X3GLlu9UfrYczQOpBUBL-42" value="" style="endArrow=classic;html=1;rounded=0;exitX=0.5;exitY=1;exitDx=0;exitDy=0;entryX=0.508;entryY=0.063;entryDx=0;entryDy=0;entryPerimeter=0;strokeColor=#000000;" parent="1" source="X3GLlu9UfrYczQOpBUBL-41" target="X3GLlu9UfrYczQOpBUBL-37" edge="1">
          <mxGeometry width="50" height="50" relative="1" as="geometry">
            <mxPoint x="362" y="700" as="sourcePoint" />
            <mxPoint x="412" y="650" as="targetPoint" />
          </mxGeometry>
        </mxCell>
        <mxCell id="X3GLlu9UfrYczQOpBUBL-43" value="&lt;font style=&quot;font-size: 24px;&quot;&gt;-&lt;/font&gt;" style="text;html=1;strokeColor=none;fillColor=none;align=center;verticalAlign=middle;whiteSpace=wrap;rounded=0;fontStyle=1;fontColor=#ff0000;" parent="1" vertex="1">
          <mxGeometry x="642" y="650" width="20" height="20" as="geometry" />
        </mxCell>
        <mxCell id="X3GLlu9UfrYczQOpBUBL-44" value="Cater for internal events" style="rounded=1;whiteSpace=wrap;html=1;" parent="1" vertex="1">
          <mxGeometry x="660" y="230" width="80" height="50" as="geometry" />
        </mxCell>
        <mxCell id="X3GLlu9UfrYczQOpBUBL-45" value="" style="rounded=0;orthogonalLoop=1;jettySize=auto;html=1;exitX=0.5;exitY=0;exitDx=0;exitDy=0;entryX=0.75;entryY=1;entryDx=0;entryDy=0;" parent="1" source="X3GLlu9UfrYczQOpBUBL-44" target="X3GLlu9UfrYczQOpBUBL-6" edge="1">
          <mxGeometry relative="1" as="geometry">
            <mxPoint x="525" y="240" as="sourcePoint" />
            <mxPoint x="495" y="210" as="targetPoint" />
          </mxGeometry>
        </mxCell>
        <mxCell id="X3GLlu9UfrYczQOpBUBL-46" style="edgeStyle=none;rounded=0;orthogonalLoop=1;jettySize=auto;html=1;exitX=0.5;exitY=0;exitDx=0;exitDy=0;" parent="1" source="X3GLlu9UfrYczQOpBUBL-21" target="X3GLlu9UfrYczQOpBUBL-21" edge="1">
          <mxGeometry relative="1" as="geometry" />
        </mxCell>
        <mxCell id="X3GLlu9UfrYczQOpBUBL-47" value="" style="edgeStyle=none;rounded=0;orthogonalLoop=1;jettySize=auto;html=1;entryX=0.5;entryY=1;entryDx=0;entryDy=0;" parent="1" source="OVPMkM7dysgzumKCxNbh-11" target="X3GLlu9UfrYczQOpBUBL-44" edge="1">
          <mxGeometry relative="1" as="geometry">
            <mxPoint x="790" y="400" as="targetPoint" />
            <mxPoint x="709" y="410" as="sourcePoint" />
          </mxGeometry>
        </mxCell>
        <mxCell id="X3GLlu9UfrYczQOpBUBL-49" style="edgeStyle=none;rounded=0;orthogonalLoop=1;jettySize=auto;html=1;exitX=0;exitY=0.5;exitDx=0;exitDy=0;" parent="1" source="X3GLlu9UfrYczQOpBUBL-35" target="X3GLlu9UfrYczQOpBUBL-35" edge="1">
          <mxGeometry relative="1" as="geometry" />
        </mxCell>
        <mxCell id="X3GLlu9UfrYczQOpBUBL-51" value="" style="ellipse;whiteSpace=wrap;html=1;fillColor=none;dashed=1;dashPattern=12 12;" parent="1" vertex="1">
          <mxGeometry x="130" y="560" width="270" height="220" as="geometry" />
        </mxCell>
        <mxCell id="X3GLlu9UfrYczQOpBUBL-52" value="Community&lt;br&gt;Member" style="ellipse;whiteSpace=wrap;html=1;aspect=fixed;" parent="1" vertex="1">
          <mxGeometry x="105" y="580" width="80" height="80" as="geometry" />
        </mxCell>
        <mxCell id="OVPMkM7dysgzumKCxNbh-6" style="rounded=0;orthogonalLoop=1;jettySize=auto;html=1;" parent="1" source="X3GLlu9UfrYczQOpBUBL-53" target="X3GLlu9UfrYczQOpBUBL-12" edge="1">
          <mxGeometry relative="1" as="geometry" />
        </mxCell>
        <mxCell id="OVPMkM7dysgzumKCxNbh-15" style="edgeStyle=none;rounded=0;orthogonalLoop=1;jettySize=auto;html=1;" parent="1" source="X3GLlu9UfrYczQOpBUBL-53" target="OVPMkM7dysgzumKCxNbh-13" edge="1">
          <mxGeometry relative="1" as="geometry" />
        </mxCell>
        <mxCell id="X3GLlu9UfrYczQOpBUBL-53" value="Save time&lt;br&gt;and money" style="ellipse;shape=cloud;whiteSpace=wrap;html=1;" parent="1" vertex="1">
          <mxGeometry x="220" y="570" width="120" height="80" as="geometry" />
        </mxCell>
        <mxCell id="OVPMkM7dysgzumKCxNbh-1" value="" style="ellipse;whiteSpace=wrap;html=1;fillColor=none;dashed=1;dashPattern=12 12;" parent="1" vertex="1">
          <mxGeometry x="-250" y="440" width="320" height="190" as="geometry" />
        </mxCell>
        <mxCell id="OVPMkM7dysgzumKCxNbh-2" value="Hamilton Citizen" style="ellipse;whiteSpace=wrap;html=1;aspect=fixed;" parent="1" vertex="1">
          <mxGeometry x="-240" y="430" width="80" height="80" as="geometry" />
        </mxCell>
        <mxCell id="OVPMkM7dysgzumKCxNbh-8" style="rounded=0;orthogonalLoop=1;jettySize=auto;html=1;" parent="1" source="OVPMkM7dysgzumKCxNbh-3" target="X3GLlu9UfrYczQOpBUBL-20" edge="1">
          <mxGeometry relative="1" as="geometry" />
        </mxCell>
        <mxCell id="OVPMkM7dysgzumKCxNbh-3" value="Get good food and drinks" style="ellipse;shape=cloud;whiteSpace=wrap;html=1;" parent="1" vertex="1">
          <mxGeometry x="-110" y="450" width="120" height="80" as="geometry" />
        </mxCell>
        <mxCell id="OVPMkM7dysgzumKCxNbh-4" value="Have fun going out" style="ellipse;shape=cloud;whiteSpace=wrap;html=1;" parent="1" vertex="1">
          <mxGeometry x="-220" y="510" width="170" height="80" as="geometry" />
        </mxCell>
        <mxCell id="OVPMkM7dysgzumKCxNbh-5" value="Maintain health to study" style="ellipse;shape=cloud;whiteSpace=wrap;html=1;" parent="1" vertex="1">
          <mxGeometry x="180" y="660" width="120" height="80" as="geometry" />
        </mxCell>
        <mxCell id="OVPMkM7dysgzumKCxNbh-16" style="edgeStyle=none;rounded=0;orthogonalLoop=1;jettySize=auto;html=1;" parent="1" source="OVPMkM7dysgzumKCxNbh-11" target="X3GLlu9UfrYczQOpBUBL-15" edge="1">
          <mxGeometry relative="1" as="geometry" />
        </mxCell>
        <mxCell id="OVPMkM7dysgzumKCxNbh-11" value="Integrate with Mosaic" style="rounded=1;whiteSpace=wrap;html=1;" parent="1" vertex="1">
          <mxGeometry x="690" y="320" width="78" height="60" as="geometry" />
        </mxCell>
        <mxCell id="OVPMkM7dysgzumKCxNbh-14" style="rounded=0;orthogonalLoop=1;jettySize=auto;html=1;" parent="1" source="OVPMkM7dysgzumKCxNbh-13" target="X3GLlu9UfrYczQOpBUBL-15" edge="1">
          <mxGeometry relative="1" as="geometry" />
        </mxCell>
        <mxCell id="OVPMkM7dysgzumKCxNbh-17" style="edgeStyle=none;rounded=0;orthogonalLoop=1;jettySize=auto;html=1;" parent="1" source="OVPMkM7dysgzumKCxNbh-13" target="OVPMkM7dysgzumKCxNbh-11" edge="1">
          <mxGeometry relative="1" as="geometry" />
        </mxCell>
        <mxCell id="OVPMkM7dysgzumKCxNbh-13" value="Accept student meal cards in app" style="shape=hexagon;perimeter=hexagonPerimeter2;whiteSpace=wrap;html=1;fixedSize=1;" parent="1" vertex="1">
          <mxGeometry x="500" y="500" width="110" height="50" as="geometry" />
        </mxCell>
        <mxCell id="ZUzb2LAErfF4G-L0dlGV-2" style="rounded=0;orthogonalLoop=1;jettySize=auto;html=1;" edge="1" parent="1" source="ZUzb2LAErfF4G-L0dlGV-1" target="X3GLlu9UfrYczQOpBUBL-9">
          <mxGeometry relative="1" as="geometry" />
        </mxCell>
        <mxCell id="ZUzb2LAErfF4G-L0dlGV-1" value="Firebird menu" style="rounded=0;whiteSpace=wrap;html=1;" vertex="1" parent="1">
          <mxGeometry x="310" y="380" width="80" height="40" as="geometry" />
        </mxCell>
      </root>
    </mxGraphModel>
  </diagram>
</mxfile>
